<?xml version="1.0" encoding="UTF-8"?><svg xmlns="http://www.w3.org/2000/svg" xmlns:xlink="http://www.w3.org/1999/xlink" fill-opacity="1" color-rendering="auto" color-interpolation="auto" stroke="black" text-rendering="auto" stroke-linecap="square" width="295" stroke-miterlimit="10" stroke-opacity="1" shape-rendering="auto" fill="black" stroke-dasharray="none" font-weight="normal" stroke-width="1" height="500" font-family="'Dialog'" font-style="normal" stroke-linejoin="miter" font-size="12" stroke-dashoffset="0" image-rendering="auto">
  <!--Generated by ySVG 2.5-->
  <defs id="genericDefs"/>
  <g>
    <defs id="defs1">
      <clipPath clipPathUnits="userSpaceOnUse" id="clipPath1">
        <path d="M0 0 L295 0 L295 500 L0 500 L0 0 Z"/>
      </clipPath>
      <clipPath clipPathUnits="userSpaceOnUse" id="clipPath2">
        <path d="M305 440 L600 440 L600 940 L305 940 L305 440 Z"/>
      </clipPath>
    </defs>
    <g fill="rgb(204,255,204)" text-rendering="geometricPrecision" shape-rendering="geometricPrecision" transform="matrix(1,0,0,1,-305,-440)" stroke="rgb(204,255,204)">
      <rect x="413" width="150" height="30" y="605.3752" clip-path="url(#clipPath2)" stroke="none"/>
    </g>
    <g text-rendering="geometricPrecision" stroke-miterlimit="1.45" shape-rendering="geometricPrecision" font-family="sans-serif" transform="matrix(1,0,0,1,-305,-440)" stroke-linecap="butt">
      <text x="458.8115" xml:space="preserve" y="624.9103" clip-path="url(#clipPath2)" stroke="none">Propagate</text>
      <rect fill="none" x="413" width="150" height="30" y="605.3752" clip-path="url(#clipPath2)"/>
    </g>
    <g fill="rgb(204,255,204)" text-rendering="geometricPrecision" shape-rendering="geometricPrecision" transform="matrix(1,0,0,1,-305,-440)" stroke="rgb(204,255,204)">
      <rect x="413" width="150" height="30" y="665.3752" clip-path="url(#clipPath2)" stroke="none"/>
    </g>
    <g text-rendering="geometricPrecision" stroke-miterlimit="1.45" shape-rendering="geometricPrecision" font-family="sans-serif" transform="matrix(1,0,0,1,-305,-440)" stroke-linecap="butt">
      <text x="429.7051" xml:space="preserve" y="684.9103" clip-path="url(#clipPath2)" stroke="none">Compute properties</text>
      <rect fill="none" x="413" width="150" height="30" y="665.3752" clip-path="url(#clipPath2)"/>
    </g>
    <g fill="rgb(204,255,204)" text-rendering="geometricPrecision" shape-rendering="geometricPrecision" transform="matrix(1,0,0,1,-305,-440)" stroke="rgb(204,255,204)">
      <rect x="413" width="150" height="30" y="725.3752" clip-path="url(#clipPath2)" stroke="none"/>
    </g>
    <g text-rendering="geometricPrecision" stroke-miterlimit="1.45" shape-rendering="geometricPrecision" font-family="sans-serif" transform="matrix(1,0,0,1,-305,-440)" stroke-linecap="butt">
      <text x="440.0557" xml:space="preserve" y="744.9103" clip-path="url(#clipPath2)" stroke="none">Output averages</text>
      <rect fill="none" x="413" width="150" height="30" y="725.3752" clip-path="url(#clipPath2)"/>
    </g>
    <g fill="rgb(255,204,0)" text-rendering="geometricPrecision" shape-rendering="geometricPrecision" transform="matrix(1,0,0,1,-305,-440)" stroke="rgb(255,204,0)">
      <path d="M391.0876 810.132 L487.9999 785.3749 L584.9128 810.132 L487.9999 834.8895 Z" clip-path="url(#clipPath2)" fill-rule="evenodd" stroke="none"/>
    </g>
    <g text-rendering="geometricPrecision" stroke-miterlimit="1.45" shape-rendering="geometricPrecision" font-family="sans-serif" transform="matrix(1,0,0,1,-305,-440)" stroke-linecap="butt">
      <text x="427.6455" xml:space="preserve" y="814.6675" clip-path="url(#clipPath2)" stroke="none">Simulation finished ?</text>
      <path fill="none" d="M391.0876 810.132 L487.9999 785.3749 L584.9128 810.132 L487.9999 834.8895 Z" fill-rule="evenodd" clip-path="url(#clipPath2)"/>
    </g>
    <g fill="rgb(51,153,102)" text-rendering="geometricPrecision" shape-rendering="geometricPrecision" transform="matrix(1,0,0,1,-305,-440)" stroke="rgb(51,153,102)">
      <circle r="30" clip-path="url(#clipPath2)" cx="488" cy="894.8894" stroke="none"/>
    </g>
    <g text-rendering="geometricPrecision" stroke-miterlimit="1.45" shape-rendering="geometricPrecision" font-family="sans-serif" transform="matrix(1,0,0,1,-305,-440)" stroke-linecap="butt">
      <text x="467.3867" xml:space="preserve" y="899.4246" clip-path="url(#clipPath2)" stroke="none">System</text>
      <circle fill="none" r="30" clip-path="url(#clipPath2)" cx="488" cy="894.8894"/>
    </g>
    <g fill="rgb(51,153,102)" text-rendering="geometricPrecision" shape-rendering="geometricPrecision" transform="matrix(1,0,0,1,-305,-440)" stroke="rgb(51,153,102)">
      <circle r="30" clip-path="url(#clipPath2)" cx="488" cy="485.3752" stroke="none"/>
    </g>
    <g text-rendering="geometricPrecision" stroke-miterlimit="1.45" shape-rendering="geometricPrecision" font-family="sans-serif" transform="matrix(1,0,0,1,-305,-440)" stroke-linecap="butt">
      <text x="467.3867" xml:space="preserve" y="489.9103" clip-path="url(#clipPath2)" stroke="none">System</text>
      <circle fill="none" r="30" clip-path="url(#clipPath2)" cx="488" cy="485.3752"/>
    </g>
    <g fill="rgb(204,255,204)" text-rendering="geometricPrecision" shape-rendering="geometricPrecision" transform="matrix(1,0,0,1,-305,-440)" stroke="rgb(204,255,204)">
      <rect x="413" width="150" height="30" y="545.3752" clip-path="url(#clipPath2)" stroke="none"/>
    </g>
    <g text-rendering="geometricPrecision" stroke-miterlimit="1.45" shape-rendering="geometricPrecision" font-family="sans-serif" transform="matrix(1,0,0,1,-305,-440)" stroke-linecap="butt">
      <text x="428.0205" xml:space="preserve" y="564.9103" clip-path="url(#clipPath2)" stroke="none">Setup the simulation</text>
      <rect fill="none" x="413" width="150" height="30" y="545.3752" clip-path="url(#clipPath2)"/>
      <path fill="none" d="M488 635.3752 L488 657.3752" clip-path="url(#clipPath2)"/>
      <path d="M488 665.3752 L493 653.3752 L488 656.3752 L483 653.3752 Z" clip-path="url(#clipPath2)" stroke="none"/>
      <path fill="none" d="M488 695.3752 L488 717.3752" clip-path="url(#clipPath2)"/>
      <path d="M488 725.3752 L493 713.3752 L488 716.3752 L483 713.3752 Z" clip-path="url(#clipPath2)" stroke="none"/>
      <path fill="none" d="M488 755.3752 L488 777.4007" clip-path="url(#clipPath2)"/>
      <path d="M488 785.4007 L493 773.4007 L488 776.4007 L483 773.4007 Z" clip-path="url(#clipPath2)" stroke="none"/>
      <path fill="none" d="M391.1071 810.1323 L320.8955 810.1323 L320.8955 810.1323 L320.8955 620.3752 L405 620.3752" clip-path="url(#clipPath2)"/>
      <path d="M413 620.3752 L401 615.3752 L404 620.3752 L401 625.3752 Z" clip-path="url(#clipPath2)" stroke="none"/>
      <path fill="none" d="M488 834.9221 L488 856.8894" clip-path="url(#clipPath2)"/>
      <path d="M488 864.8894 L493 852.8894 L488 855.8894 L483 852.8894 Z" clip-path="url(#clipPath2)" stroke="none"/>
      <path fill="none" d="M488 515.3752 L488 537.3752" clip-path="url(#clipPath2)"/>
      <path d="M488 545.3752 L493 533.3752 L488 536.3752 L483 533.3752 Z" clip-path="url(#clipPath2)" stroke="none"/>
      <path fill="none" d="M488 575.3752 L488 597.3752" clip-path="url(#clipPath2)"/>
      <path d="M488 605.3752 L493 593.3752 L488 596.3752 L483 593.3752 Z" clip-path="url(#clipPath2)" stroke="none"/>
    </g>
  </g>
</svg>
