<?xml version="1.0" encoding="UTF-8" standalone="no"?>
<!-- Created with Inkscape (http://www.inkscape.org/) -->

<svg
   xmlns:dc="http://purl.org/dc/elements/1.1/"
   xmlns:cc="http://creativecommons.org/ns#"
   xmlns:rdf="http://www.w3.org/1999/02/22-rdf-syntax-ns#"
   xmlns:svg="http://www.w3.org/2000/svg"
   xmlns="http://www.w3.org/2000/svg"
   xmlns:sodipodi="http://sodipodi.sourceforge.net/DTD/sodipodi-0.dtd"
   xmlns:inkscape="http://www.inkscape.org/namespaces/inkscape"
   version="1.1"
   width="300"
   height="230"
   id="svg2"
   xml:space="preserve"
   inkscape:version="0.48.4 r9939"
   sodipodi:docname="system.svg"><sodipodi:namedview
     pagecolor="#ffffff"
     bordercolor="#666666"
     borderopacity="1"
     objecttolerance="10"
     gridtolerance="10"
     guidetolerance="10"
     inkscape:pageopacity="0"
     inkscape:pageshadow="2"
     inkscape:window-width="1920"
     inkscape:window-height="979"
     id="namedview41"
     showgrid="false"
     inkscape:zoom="1.7949816"
     inkscape:cx="377.41022"
     inkscape:cy="51.006361"
     inkscape:window-x="0"
     inkscape:window-y="28"
     inkscape:window-maximized="1"
     inkscape:current-layer="svg2" /><metadata
     id="metadata8"><rdf:RDF><cc:Work
         rdf:about=""><dc:format>image/svg+xml</dc:format><dc:type
           rdf:resource="http://purl.org/dc/dcmitype/StillImage" /><dc:title /></cc:Work></rdf:RDF></metadata><defs
     id="defs6"><clipPath
       id="clipPath16"><path
         d="m 0,-0.2 793.6,0 0,595.2 L 0,595 0,-0.2 z"
         id="path18"
         inkscape:connector-curvature="0" /></clipPath></defs><g
     transform="matrix(0.38151049,0,0,-0.38728451,-2.8288732,229.784)"
     id="g10"><g
       transform="translate(325.23305,10.084746)"
       id="g12"><g
         id="g22" /><g
         id="g24" /><g
         transform="matrix(2.2450303,0,0,1.9785833,-535.4253,-488.41804)"
         id="g26"><path
           d="m 272.1,532.6 c 96.5,0 170.1,-61.3 170.1,-141.7 0,-80.4 -73.6,-141.7 -170.1,-141.7 -96.4,0 -170.1,61.3 -170.1,141.7 0,80.4 73.7,141.7 170.1,141.7 z"
           id="path28"
           style="fill:none;stroke:none"
           inkscape:connector-curvature="0" /></g><g
         transform="matrix(2.2450303,0,0,1.9785833,-535.4253,-488.41804)"
         id="g30"><text
           transform="matrix(1,0,0,-1,204.3,479.7)"
           id="text32"><tspan
             x="0 27.972 48.972 69.972 81.564003 104.916"
             y="0"
             id="tspan34"
             style="font-size:42px;font-variant:normal;font-weight:normal;writing-mode:lr-tb;fill:#000000;fill-opacity:1;fill-rule:nonzero;stroke:none;font-family:Liberation Sans;-inkscape-font-specification:LiberationSans">System</tspan></text>
</g><path
         d="m -160.05623,436.37179 c 68.69793,0 121.007138,-70.43756 121.007138,-162.63954 0,-92.20199 -52.309208,-162.63955 -121.007138,-162.63955 -68.47342,0 -120.78263,70.43756 -120.78263,162.63955 0,92.20198 52.30921,162.63954 120.78263,162.63954 z"
         id="path36"
         style="fill:#ccffcc;fill-opacity:1;fill-rule:evenodd;stroke:none"
         inkscape:connector-curvature="0" /><g
         transform="matrix(2.2450303,0,0,1.9785833,-535.4253,-488.41804)"
         id="g38"><path
           d="m 167.2,467.4 c 30.6,0 53.9,-35.6 53.9,-82.2 0,-46.6 -23.3,-82.2 -53.9,-82.2 -30.5,0 -53.8,35.6 -53.8,82.2 0,46.6 23.3,82.2 53.8,82.2 z"
           id="path40"
           style="fill:none;stroke:none"
           inkscape:connector-curvature="0" /></g><g
         transform="matrix(2.2450303,0,0,1.9785833,-535.4253,-488.41804)"
         id="g42"><text
           transform="matrix(1,0,0,-1,132.8,379)"
           id="text44"><tspan
             x="0 11.988 21.996 27.99 32.976002 36.972 45.972 49.877998 59.886002"
             y="0"
             id="tspan46"
             style="font-size:18px;font-variant:normal;font-weight:normal;writing-mode:lr-tb;fill:#000000;fill-opacity:1;fill-rule:nonzero;stroke:none;font-family:Liberation Sans;-inkscape-font-specification:LiberationSans">Particles</tspan></text>
</g><path
         d="m 81.958043,425.29173 c 61.289337,0 107.985967,-38.97809 107.985967,-89.82769 0,-50.84959 -46.69663,-89.62982 -107.985967,-89.62982 -61.513831,0 -108.210462,38.78023 -108.210462,89.62982 0,50.8496 46.696631,89.82769 108.210462,89.82769 z"
         id="path48"
         style="fill:#cfe7f5;fill-opacity:1;fill-rule:evenodd;stroke:none"
         inkscape:connector-curvature="0" /><g
         transform="matrix(2.2450303,0,0,1.9785833,-535.4253,-488.41804)"
         id="g50"><path
           d="m 275,461.8 c 27.3,0 48.1,-19.7 48.1,-45.4 0,-25.7 -20.8,-45.3 -48.1,-45.3 -27.4,0 -48.2,19.6 -48.2,45.3 0,25.7 20.8,45.4 48.2,45.4 z"
           id="path52"
           style="fill:none;stroke:none"
           inkscape:connector-curvature="0" /></g><g
         transform="matrix(2.2450303,0,0,1.9785833,-535.4253,-488.41804)"
         id="g54"><text
           transform="matrix(1,0,0,-1,234.7,410.2)"
           id="text56"><tspan
             x="0 14.706 24.714001 28.709999 38.610001 47.610001 57.618 61.523998 71.531998"
             y="0"
             id="tspan58"
             style="font-size:18px;font-variant:normal;font-weight:normal;writing-mode:lr-tb;fill:#000000;fill-opacity:1;fill-rule:nonzero;stroke:none;font-family:Liberation Sans;-inkscape-font-specification:LiberationSans">Molecules</tspan></text>
</g><path
         d="m 310.95114,301.82813 c 68.47343,0 121.00714,-19.39012 121.00714,-44.71598 0,-25.52373 -52.53371,-44.91385 -121.00714,-44.91385 -68.47342,0 -121.00713,19.39012 -121.00713,44.91385 0,25.32586 52.53371,44.71598 121.00713,44.71598 z"
         id="path60"
         style="fill:#6699cc;fill-opacity:1;fill-rule:evenodd;stroke:none"
         inkscape:connector-curvature="0" /><g
         transform="matrix(2.2450303,0,0,1.9785833,-535.4253,-488.41804)"
         id="g62"><path
           d="m 377,399.4 c 30.5,0 53.9,-9.8 53.9,-22.6 0,-12.9 -23.4,-22.7 -53.9,-22.7 -30.5,0 -53.9,9.8 -53.9,22.7 0,12.8 23.4,22.6 53.9,22.6 z"
           id="path64"
           style="fill:none;stroke:none"
           inkscape:connector-curvature="0" /></g><g
         transform="matrix(2.2450303,0,0,1.9785833,-535.4253,-488.41804)"
         id="g66"><text
           transform="matrix(1,0,0,-1,345.1,370.5)"
           id="text68"><tspan
             x="0 12.906 22.914 26.91 31.896 36.972 45.863998 55.872002 59.868"
             y="0"
             id="tspan70"
             style="font-size:18px;font-variant:normal;font-weight:normal;writing-mode:lr-tb;fill:#000000;fill-opacity:1;fill-rule:nonzero;stroke:none;font-family:Liberation Sans;-inkscape-font-specification:LiberationSans">Unit cell</tspan></text>
</g><path
         d="m 145.49241,189.64245 c 111.80251,0 197.33816,-24.33657 197.33816,-55.9939 0,-31.85519 -85.53565,-56.191769 -197.33816,-56.191769 -111.802519,0 -197.338175,24.336579 -197.338175,56.191769 0,31.65733 85.535656,55.9939 197.338175,55.9939 z"
         id="path72"
         style="fill:#99cccc;fill-opacity:1;fill-rule:evenodd;stroke:none"
         inkscape:connector-curvature="0" /><g
         transform="matrix(2.2450303,0,0,1.9785833,-535.4253,-488.41804)"
         id="g74"><path
           d="m 303.3,342.7 c 49.8,0 87.9,-12.3 87.9,-28.3 0,-16.1 -38.1,-28.4 -87.9,-28.4 -49.8,0 -87.9,12.3 -87.9,28.4 0,16 38.1,28.3 87.9,28.3 z"
           id="path76"
           style="fill:none;stroke:none"
           inkscape:connector-curvature="0" /></g><g
         transform="matrix(2.2450303,0,0,1.9785833,-535.4253,-488.41804)"
         id="g78"><text
           transform="matrix(1,0,0,-1,256.9,308.1)"
           id="text80"><tspan
             x="0 4.9860001 14.994 19.98 29.988001 35.981998 45.882 54.882 59.958 63.863998 73.872002 83.879997"
             y="0"
             id="tspan82"
             style="font-size:18px;font-variant:normal;font-weight:normal;writing-mode:lr-tb;fill:#000000;fill-opacity:1;fill-rule:nonzero;stroke:none;font-family:Liberation Sans;-inkscape-font-specification:LiberationSans">Interactions</tspan></text>
</g><path
         d="m -129.21078,486.90414 a 285.20923,297.81516 0 1 1 -570.41846,0 285.20923,297.81516 0 1 1 570.41846,0 z"
         transform="matrix(1.3342291,0,0,-0.95606068,626.04565,747.88277)"
         id="path3863"
         style="fill:none;stroke:#000000;stroke-opacity:1"
         inkscape:connector-curvature="0" /></g></g></svg>